<?xml version="1.0" standalone="no"?>
<!DOCTYPE svg PUBLIC "-//W3C//DTD SVG 20010904//EN"
 "http://www.w3.org/TR/2001/REC-SVG-20010904/DTD/svg10.dtd">
<svg version="1.0" xmlns="http://www.w3.org/2000/svg"
 width="240.000000pt" height="64.000000pt" viewBox="0 0 240.000000 64.000000"
 preserveAspectRatio="xMidYMid meet">

<g transform="translate(0.000000,64.000000) scale(0.100000,-0.100000)"
fill="#000000" stroke="none">
<path d="M290 443 c-33 -12 -40 -36 -40 -140 l0 -103 25 0 c23 0 25 3 25 50
l0 50 100 0 100 0 0 25 0 25 -101 0 c-98 0 -100 0 -97 23 3 21 8 22 101 25 95
3 98 3 95 25 -3 21 -8 22 -98 24 -52 1 -102 -1 -110 -4z"/>
<path d="M550 438 c-24 -13 -25 -19 -28 -107 -4 -127 0 -131 124 -131 117 0
124 7 124 125 0 112 -6 119 -112 123 -54 2 -92 -2 -108 -10z m168 -115 l3 -73
-76 0 -75 0 0 75 0 76 73 -3 72 -3 3 -72z"/>
<path d="M798 444 c-5 -4 -8 -61 -8 -126 l0 -118 25 0 c23 0 25 3 25 50 0 34
4 50 13 50 7 0 35 -22 62 -50 42 -43 55 -50 87 -50 34 0 38 3 38 25 0 21 -5
25 -28 25 -17 0 -38 10 -52 25 l-23 25 36 0 c42 0 67 28 67 75 0 60 -17 70
-132 73 -57 2 -106 0 -110 -4z m190 -71 c3 -22 0 -23 -72 -23 -75 0 -76 0 -76
25 0 26 1 26 73 23 66 -3 72 -5 75 -25z"/>
<path d="M1090 437 c-24 -12 -25 -18 -28 -106 -4 -129 -2 -131 140 -131 l108
0 0 25 0 25 -100 0 -100 0 0 25 0 25 101 0 c98 0 100 0 97 23 -3 21 -8 22
-100 25 -97 3 -98 3 -98 27 0 25 0 25 101 25 98 0 100 0 97 23 -3 21 -8 22
-98 25 -62 1 -104 -2 -120 -11z"/>
<path d="M1330 320 l0 -120 25 0 c23 0 25 3 25 50 0 31 4 50 12 50 6 0 35 -22
64 -50 40 -38 60 -50 83 -50 26 0 31 4 31 25 0 19 -5 25 -23 25 -13 0 -38 16
-60 38 l-37 38 38 37 c21 20 48 37 60 37 15 0 22 6 22 20 0 16 -7 20 -32 20
-24 0 -44 -12 -85 -51 -29 -27 -58 -47 -63 -44 -6 3 -10 26 -10 51 0 40 -2 44
-25 44 l-25 0 0 -120z"/>
<path d="M1610 421 c-16 -32 -13 -173 6 -199 14 -20 24 -22 100 -22 123 0 124
1 124 118 0 63 -4 102 -12 110 -8 8 -47 12 -110 12 -86 0 -98 -2 -108 -19z
m190 -96 l0 -75 -75 0 -75 0 0 75 0 75 75 0 75 0 0 -75z"/>
<path d="M1870 320 l0 -120 25 0 c23 0 25 3 25 50 0 31 4 50 12 50 6 0 35 -22
64 -50 40 -38 60 -50 83 -50 26 0 31 4 31 25 0 20 -5 25 -23 25 -13 0 -34 11
-47 25 l-23 25 34 0 c19 0 40 5 47 12 16 16 16 100 0 116 -8 8 -49 12 -120 12
l-108 0 0 -120z m198 54 c-3 -26 -5 -26 -73 -26 -68 0 -70 0 -73 26 l-3 26 76
0 76 0 -3 -26z"/>
<path d="M148 354 c-38 -19 -68 -40 -68 -48 0 -11 126 -73 140 -69 21 6 3 27
-40 47 l-52 24 51 26 c28 15 51 33 51 41 0 20 -5 19 -82 -21z"/>
<path d="M2140 371 c0 -13 14 -24 45 -35 25 -10 45 -21 45 -26 0 -5 -20 -16
-45 -26 -31 -11 -45 -23 -45 -35 0 -17 4 -17 58 7 31 15 65 28 75 31 33 10 16
29 -58 66 -66 33 -75 35 -75 18z"/>
</g>
</svg>
